<?xml version="1.0" standalone="no"?>
<!DOCTYPE svg PUBLIC "-//W3C//DTD SVG 20010904//EN"
 "http://www.w3.org/TR/2001/REC-SVG-20010904/DTD/svg10.dtd">
<svg version="1.0" xmlns="http://www.w3.org/2000/svg"
 width="1780.000000pt" height="512.000000pt" viewBox="0 0 1780.000000 512.000000"
 preserveAspectRatio="xMidYMid meet">

<g transform="translate(0.000000,512.000000) scale(0.100000,-0.100000)"
fill="#000000" stroke="none">
<path d="M2522 4408 l3 -542 530 -248 529 -249 571 267 c313 147 573 270 578
274 6 5 -2188 1040 -2206 1040 -4 0 -6 -244 -5 -542z"/>
<path d="M13910 4115 c-302 -67 -507 -277 -597 -610 -27 -99 -27 -104 -28
-415 0 -290 2 -322 22 -407 77 -323 280 -550 559 -624 99 -26 301 -29 414 -6
313 64 503 274 564 625 l6 32 -133 0 -132 0 -22 -86 c-57 -218 -153 -320 -341
-359 -264 -56 -474 40 -586 269 -80 163 -102 312 -93 621 8 277 39 406 128
540 111 165 285 239 509 214 107 -12 211 -59 266 -122 50 -58 101 -166 121
-259 l16 -78 133 0 134 0 -6 33 c-58 333 -213 529 -489 617 -91 29 -343 38
-445 15z"/>
<path d="M5600 3085 l0 -1025 135 0 135 0 0 455 0 455 425 0 425 0 0 105 0
105 -425 0 -425 0 0 355 0 355 495 0 495 0 0 110 0 110 -630 0 -630 0 0 -1025z"/>
<path d="M7210 3085 l0 -1025 135 0 135 0 0 1025 0 1025 -135 0 -135 0 0
-1025z"/>
<path d="M7980 3085 l0 -1025 130 0 130 0 2 792 3 791 515 -791 515 -791 138
0 137 -1 -2 1023 -3 1022 -132 3 -133 3 -2 -791 -3 -790 -504 773 c-278 424
-511 780 -519 790 -13 14 -34 17 -144 17 l-128 0 0 -1025z"/>
<path d="M9820 4000 l0 -110 330 0 330 0 0 -915 0 -915 130 0 130 0 2 913 3
912 328 3 327 2 0 110 0 110 -790 0 -790 0 0 -110z"/>
<path d="M11710 3085 l0 -1025 650 0 650 0 0 110 0 110 -515 0 -515 0 0 365 0
365 440 0 440 0 0 110 0 110 -440 0 -440 0 0 330 0 330 505 0 505 0 0 110 0
110 -640 0 -640 0 0 -1025z"/>
<path d="M15220 3085 l0 -1025 135 0 135 0 0 475 0 475 515 0 515 0 0 -475 0
-475 135 0 135 0 0 1025 0 1026 -132 -3 -133 -3 -3 -437 -2 -438 -515 0 -515
0 0 440 0 440 -135 0 -135 0 0 -1025z"/>
</g>
</svg>
